<svg version="1.2" xmlns="http://www.w3.org/2000/svg" viewBox="0 0 467 382" width="256" height="256">
	<title>New Project</title>
	<style>
		.s0 { fill: #314b54 } 
		.s1 { fill: #172632 } 
		.s2 { fill: #4c6468 } 
		.s3 { fill: #2a343b } 
		.s4 { fill: #8b9191 } 
		.s5 { fill: #677375 } 
		.s6 { fill: #b7b4ac } 
		.s7 { opacity: .5;fill: none;stroke: #000000;stroke-miterlimit:100 } 
	</style>
	<g id="pot" style="opacity: .2">
		<path id="Path 0" fill-rule="evenodd" class="s0" d="m200 7l58-7h26l42 4 3 12 38-2 77 44 19 22 2 29-35 65h-12l-15-1-1 13-22 10-8-16 14-12 27-19 7-30 18-39-24-1-2 29-25-22-64-26-17-44-42 2-39-10-2 21-11 1zm-52 15l30-9-12 19zm-90 82l1-16 26-28 5 14-12 32-2 15h-1zm306 25l2-1 10 26-19 6zm-243 47l5-41 16-3 7 10v14l5 8 4 13 45 23-54-3zm171 11l13-8 14 3 12 14h17l-18 38 2 101-12 30-14 5-33 2-1 10h-3l-14-3 14-20-2-55-9-69-14-12v-16h6l16-1z"/>
		<path id="Path 1" class="s1" d="m177 71v-20l21-7v27zm-99 35l30-14 10-23 28-19 13-2 9 23h-8l-1 17h-11l-2 9 12 11-16 18-40 10-26-15zm245-42v-4l64 26 25 22 8 11-7 30-27 19-10-14-10-26-4-10-5-31-18-7-2-1-11-7zm79 122l16-12h12l8 2-13 55-13-4-6 14-6 62-3 11-45 40-5 3-4 3 1-143 36-21zm-349 27l-15-4-4-21 42-13 12 16-1 3-40 12zm85 19l60 4 4 23-75 18-9 2h-3l-1-8-17-28 10-3zm168 138l14-5 1 6-15 3z"/>
		<path id="Path 2" fill-rule="evenodd" class="s2" d="m223 29l2-21 39 10-12 12zm189 79l2-29 24 1-18 39zm-346 53l-12-25 4-32 17 17 28 46 18 9 28 21 54 3 41 7v16l14 12 9 69 2 55-14 20-43-5-34-20-10-39-39-25-2-13 75-18-4-23-60-4-34-41h-16l-12-16zm76-35l16-18 7 5 1 17-12 10-5 2-7-10zm189 42l26-6-11 14zm-26 11l16-2-2 5zm-39 21l21-18 5 5-26 19zm-213 71l-1-17 9 3-2 20zm52 9l9-9 1 8z"/>
		<path id="Path 3" class="s3" d="m326 4l55-2 60 21 3 35-77-44-38 2zm-148 9l22-6 12 23v14h-14l-21 7v20h-9l-9-23-13 2-28 19-10 23-30 14 12-32-5-14 63-38 18 10zm252 161l35-65 2 10v7l-29 50zm-66-45l-8-1 6-10 4 10zm-243 47l-18-9-28-46h1l26 15 40-10v6l-16 3zm236-16l19-6 10 14-14 12 8 16-36 21-1 143-22 11-1-6 12-30-2-101 18-38h-17l-12-14 2-5 10-9 15 8 11-14zm-357 39l23-25 43-13 10 14-42 13 4 21 15 4 44 30 17 28-9 9-46-3 2-20-9-3-51-53h-1zm402-13l1-13 15 1zm-2 117l6-62 6-14 13 4-8 51-15 23zm-128 79l1-10 33-2v4l-33 8z"/>
		<path id="Path 4" class="s4" d="m194 88l6-17 32-15 50-8 41 16 3 8 11 7 2 1 9 52-28 10-33 40-21 18-13-4-3 11h-6l-41-7-45-23-4-13-5-8 5-16 12-10 12 1 7-1 48-2 13 20 38 4 24-5 28-24-1-21-20-24-51 3-25-9zm-48 9l2-9h11 25l-19 25-7-5z"/>
		<path id="Path 5" class="s5" d="m264 18l42-2 17 44v4l-41-16-50 8-32 15-6 17h-10-25l1-17h8 9 21v-27h14v-14l11-1 29 1zm75 62l18 7 5 31-6 10 8 1-7 31v2l-26 6-10 9-16 2-13 8-5-5 33-40 28-10zm-190 62l5-2-5 16zm-61 49h16l34 41-31 8-10-42-10-4zm162 16l3-11 13 4v6zm-197 64l-50-48-2-22 51 53zm65 8l9-2 2 13 39 25 10 39-31-20zm279 35l3-11 2 2z"/>
		<path id="Path 6" class="s6" d="m194 88l45-16 25 9 51-3 20 24 1 21-28 24-24 5-38-4-13-20-48 2-7 1-12-1-1-17 19-25z"/>
		<path id="Path 7" class="s2" d="m389 50l13 3v15h-18z"/>
		<path id="Stroke" fill-rule="evenodd" class="s7" d="m200 7l58-7h26l42 4 3 12 38-2 77 44 19 22 2 29-35 65h-12l-15-1-1 13-22 10-8-16 14-12 27-19 7-30 18-39-24-1-2 29-25-22-64-26-17-44-42 2-39-10-2 21-11 1zm-52 15l30-9-12 19zm-90 82l1-16 26-28 5 14-12 32-2 15h-1zm306 25l2-1 10 26-19 6zm-243 47l5-41 16-3 7 10v14l5 8 4 13 45 23-54-3zm171 11l13-8 14 3 12 14h17l-18 38 2 101-12 30-14 5-33 2-1 10h-3l-14-3 14-20-2-55-9-69-14-12v-16h6l16-1zm-115-116v-20l21-7v27zm-99 35l30-14 10-23 28-19 13-2 9 23h-8l-1 17h-11l-2 9 12 11-16 18-40 10-26-15zm245-42v-4l64 26 25 22 8 11-7 30-27 19-10-14-10-26-4-10-5-31-18-7-2-1-11-7zm79 122l16-12h12l8 2-13 55-13-4-6 14-6 62-3 11-45 40-5 3-4 3 1-143 36-21zm-349 27l-15-4-4-21 42-13 12 16-1 3-40 12zm85 19l60 4 4 23-75 18-9 2h-3l-1-8-17-28 10-3zm168 138l14-5 1 6-15 3zm-83-341l2-21 39 10-12 12zm189 79l2-29 24 1-18 39zm-346 53l-12-25 4-32 17 17 28 46 18 9 28 21 54 3 41 7v16l14 12 9 69 2 55-14 20-43-5-34-20-10-39-39-25-2-13 75-18-4-23-60-4-34-41h-16l-12-16zm76-35l16-18 7 5 1 17-12 10-5 2-7-10zm189 42l26-6-11 14zm-26 11l16-2-2 5zm-39 21l21-18 5 5-26 19zm-213 71l-1-17 9 3-2 20zm52 9l9-9 1 8zm221-276l55-2 60 21 3 35-77-44-38 2zm-148 9l22-6 12 23v14h-14l-21 7v20h-9l-9-23-13 2-28 19-10 23-30 14 12-32-5-14 63-38 18 10zm252 161l35-65 2 10v7l-29 50zm-66-45l-8-1 6-10 4 10zm-243 47l-18-9-28-46h1l26 15 40-10v6l-16 3zm236-16l19-6 10 14-14 12 8 16-36 21-1 143-22 11-1-6 12-30-2-101 18-38h-17l-12-14 2-5 10-9 15 8 11-14zm-357 39l23-25 43-13 10 14-42 13 4 21 15 4 44 30 17 28-9 9-46-3 2-20-9-3-51-53h-1zm402-13l1-13 15 1zm-2 117l6-62 6-14 13 4-8 51-15 23zm-128 79l1-10 33-2v4l-33 8zm-78-294l6-17 32-15 50-8 41 16 3 8 11 7 2 1 9 52-28 10-33 40-21 18-13-4-3 11h-6l-41-7-45-23-4-13-5-8 5-16 12-10 12 1 7-1 48-2 13 20 38 4 24-5 28-24-1-21-20-24-51 3-25-9zm-48 9l2-9h11 25l-19 25-7-5zm118-79l42-2 17 44v4l-41-16-50 8-32 15-6 17h-10-25l1-17h8 9 21v-27h14v-14l11-1 29 1zm75 62l18 7 5 31-6 10 8 1-7 31v2l-26 6-10 9-16 2-13 8-5-5 33-40 28-10zm-190 62l5-2-5 16zm-61 49h16l34 41-31 8-10-42-10-4zm162 16l3-11 13 4v6zm-197 64l-50-48-2-22 51 53zm65 8l9-2 2 13 39 25 10 39-31-20zm279 35l3-11 2 2zm-203-226l45-16 25 9 51-3 20 24 1 21-28 24-24 5-38-4-13-20-48 2-7 1-12-1-1-17 19-25zm195-38l13 3v15h-18z"/>
	</g>
</svg>